<svg xmlns="http://www.w3.org/2000/svg" width="317.252" height="87.935" viewBox="0 0 317.252 87.935"><defs><style>.a{fill:#005387;}.b{fill:#009dac;}.c{fill:#c66b7f;}</style></defs><g transform="translate(-237.922 -70.28)"><path class="a" d="M399.8,107.41a1.992,1.992,0,0,0-.44-.62,2.664,2.664,0,0,0-.63-.42,7.76,7.76,0,0,0-.72-.3c-.24-.08-.48-.16-.72-.23a3.987,3.987,0,0,1-.62-.26,1.306,1.306,0,0,1-.45-.34.724.724,0,0,1-.16-.49,1,1,0,0,1,.08-.43.837.837,0,0,1,.25-.34,1.234,1.234,0,0,1,.41-.22,1.911,1.911,0,0,1,.57-.08,1.994,1.994,0,0,1,.63.09,3.494,3.494,0,0,1,.47.2c.13.08.24.14.34.21a.538.538,0,0,0,.27.09.361.361,0,0,0,.2-.06.473.473,0,0,0,.15-.18l.38-.74a3.122,3.122,0,0,0-1.07-.66,4.178,4.178,0,0,0-1.39-.23,3.355,3.355,0,0,0-1.18.2,2.749,2.749,0,0,0-.87.55,2.372,2.372,0,0,0-.54.78,2.332,2.332,0,0,0-.18.9,2.48,2.48,0,0,0,.17.97,1.863,1.863,0,0,0,.44.66,2.133,2.133,0,0,0,.63.43,6.154,6.154,0,0,0,.71.28c.24.08.48.15.72.22a4.013,4.013,0,0,1,.62.24,1.375,1.375,0,0,1,.45.36.846.846,0,0,1,.16.54,1.135,1.135,0,0,1-.37.92,1.54,1.54,0,0,1-1.04.32,2.107,2.107,0,0,1-.75-.12,3.131,3.131,0,0,1-.55-.27c-.15-.1-.29-.18-.4-.26a.555.555,0,0,0-.32-.12.351.351,0,0,0-.2.05.5.5,0,0,0-.15.14l-.46.76a3.154,3.154,0,0,0,.56.45,3.284,3.284,0,0,0,.67.35,3.927,3.927,0,0,0,.76.23,4.15,4.15,0,0,0,.79.08,3.243,3.243,0,0,0,1.25-.22,2.669,2.669,0,0,0,.93-.58,2.527,2.527,0,0,0,.57-.87,3,3,0,0,0,.2-1.08A2.223,2.223,0,0,0,399.8,107.41Z"/><path class="a" d="M406.884,102.49v5.08a2.751,2.751,0,0,1-.14.88,1.661,1.661,0,0,1-.38.66,1.574,1.574,0,0,1-.61.43,2.289,2.289,0,0,1-1.63,0,1.651,1.651,0,0,1-.61-.43,2.089,2.089,0,0,1-.38-.67,3.012,3.012,0,0,1-.13-.88v-5.07h-1.58v5.08a3.9,3.9,0,0,0,.25,1.39,3.043,3.043,0,0,0,.7,1.11,3.257,3.257,0,0,0,1.1.73,4.257,4.257,0,0,0,2.93,0,3.4,3.4,0,0,0,1.11-.73,3.18,3.18,0,0,0,.7-1.11,3.9,3.9,0,0,0,.24-1.39v-5.08Z"/><path class="a" d="M416.324,104.1a2.2,2.2,0,0,0-.6-.85,2.747,2.747,0,0,0-1.03-.56,4.882,4.882,0,0,0-1.47-.2h-2.76v8.47h1.58v-2.98h1.18a4.769,4.769,0,0,0,1.44-.2,2.856,2.856,0,0,0,1.03-.58,2.254,2.254,0,0,0,.61-.88,2.953,2.953,0,0,0,.21-1.13A3.2,3.2,0,0,0,416.324,104.1Zm-1.49,1.74a1.266,1.266,0,0,1-.32.49,1.329,1.329,0,0,1-.53.31,2.485,2.485,0,0,1-.76.11h-1.18v-3.04h1.18a2.5,2.5,0,0,1,.76.1,1.44,1.44,0,0,1,.53.3,1.193,1.193,0,0,1,.32.47,1.7,1.7,0,0,1,.1.61A1.889,1.889,0,0,1,414.834,105.84Z"/><path class="a" d="M423.994,104.1a2.2,2.2,0,0,0-.6-.85,2.7,2.7,0,0,0-1.02-.56,4.882,4.882,0,0,0-1.47-.2h-2.76v8.47h1.57v-2.98h1.19a4.769,4.769,0,0,0,1.44-.2,2.944,2.944,0,0,0,1.03-.58,2.364,2.364,0,0,0,.61-.88,3.108,3.108,0,0,0,.01-2.22Zm-1.49,1.74a1.245,1.245,0,0,1-.31.49,1.3,1.3,0,0,1-.54.31,2.373,2.373,0,0,1-.75.11h-1.19v-3.04h1.19a2.39,2.39,0,0,1,.75.1,1.407,1.407,0,0,1,.54.3,1.172,1.172,0,0,1,.31.47,1.7,1.7,0,0,1,.11.61A1.883,1.883,0,0,1,422.5,105.84Z"/><path class="a" d="M433.584,105a4.217,4.217,0,0,0-.87-1.37,3.989,3.989,0,0,0-1.36-.9,4.474,4.474,0,0,0-1.75-.33,4.752,4.752,0,0,0-1.76.32,4.031,4.031,0,0,0-2.23,2.28,4.665,4.665,0,0,0-.31,1.73,4.612,4.612,0,0,0,.31,1.72,4.125,4.125,0,0,0,.88,1.38,3.948,3.948,0,0,0,1.35.9,4.56,4.56,0,0,0,1.76.33,4.474,4.474,0,0,0,1.75-.33,3.989,3.989,0,0,0,1.36-.9,4.262,4.262,0,0,0,.87-1.38,4.613,4.613,0,0,0,.31-1.72A4.666,4.666,0,0,0,433.584,105Zm-1.49,2.98a2.616,2.616,0,0,1-.53.94,2.409,2.409,0,0,1-.84.59,3.236,3.236,0,0,1-2.24,0,2.545,2.545,0,0,1-.85-.59,2.616,2.616,0,0,1-.53-.94,3.772,3.772,0,0,1-.19-1.25,3.731,3.731,0,0,1,.19-1.25,2.534,2.534,0,0,1,.53-.94,2.434,2.434,0,0,1,.85-.6,3.236,3.236,0,0,1,2.24,0,2.309,2.309,0,0,1,.84.6,2.534,2.534,0,0,1,.53.94,4.012,4.012,0,0,1,.18,1.25A4.057,4.057,0,0,1,432.094,107.98Z"/><path class="a" d="M440.034,107.84a1.4,1.4,0,0,0-.51-.49,3.212,3.212,0,0,0,.79-.38,2.347,2.347,0,0,0,.59-.54,2.522,2.522,0,0,0,.36-.69,2.746,2.746,0,0,0,.13-.81,2.645,2.645,0,0,0-.19-.99,1.966,1.966,0,0,0-.58-.77,2.892,2.892,0,0,0-1.01-.5,5.376,5.376,0,0,0-1.49-.18h-2.58v8.47h1.57v-3.31h.68a.8.8,0,0,1,.35.07.516.516,0,0,1,.22.22l1.78,2.71a.684.684,0,0,0,.25.23.627.627,0,0,0,.35.08h1.41Zm-1.15-1.43a2.373,2.373,0,0,1-.78.11h-.99v-2.81h1.01a1.979,1.979,0,0,1,1.3.35,1.208,1.208,0,0,1,.42.99,1.625,1.625,0,0,1-.1.59,1.233,1.233,0,0,1-.32.46A1.421,1.421,0,0,1,438.884,106.41Z"/><path class="a" d="M442.474,102.49v1.3h2.56v7.17h1.58v-7.17h2.55v-1.3Z"/><path class="a" d="M450.7,102.49v8.47h1.59v-8.47Z"/><path class="a" d="M460.714,102.49a.533.533,0,0,0-.34.11.724.724,0,0,0-.19.25l-1.98,5.17a7.422,7.422,0,0,0-.34,1.19c-.05-.23-.11-.44-.17-.64s-.12-.38-.19-.55l-1.99-5.17a.572.572,0,0,0-.2-.26.483.483,0,0,0-.33-.1h-1.27l3.42,8.47h1.43l3.42-8.47Z"/><path class="a" d="M468.564,103.74v-1.25h-5.34v8.47h5.34V109.7H464.8v-2.39h2.96v-1.22H464.8v-2.35Z"/><path class="a" d="M477.8,107.41a1.842,1.842,0,0,0-.44-.62,2.312,2.312,0,0,0-.63-.42c-.23-.11-.47-.21-.71-.3s-.49-.16-.72-.23a3.739,3.739,0,0,1-.63-.26,1.265,1.265,0,0,1-.44-.34.729.729,0,0,1-.17-.49,1.175,1.175,0,0,1,.08-.43.94.94,0,0,1,.25-.34,1.234,1.234,0,0,1,.41-.22,2.2,2.2,0,0,1,1.21.01,3.337,3.337,0,0,1,.46.2c.13.08.25.14.35.21a.479.479,0,0,0,.26.09.317.317,0,0,0,.2-.06.347.347,0,0,0,.15-.18l.39-.74a3.266,3.266,0,0,0-1.08-.66,4.076,4.076,0,0,0-1.38-.23,3.315,3.315,0,0,0-1.18.2,2.749,2.749,0,0,0-.87.55,2.108,2.108,0,0,0-.54.78,2.332,2.332,0,0,0-.18.9,2.491,2.491,0,0,0,.16.97,1.863,1.863,0,0,0,.44.66,2.428,2.428,0,0,0,.63.43,6.3,6.3,0,0,0,.72.28c.24.08.48.15.71.22a4.152,4.152,0,0,1,.63.24,1.443,1.443,0,0,1,.44.36.85.85,0,0,1,.17.54,1.135,1.135,0,0,1-.37.92,1.576,1.576,0,0,1-1.04.32,2.126,2.126,0,0,1-.76-.12,2.717,2.717,0,0,1-.54-.27c-.16-.1-.29-.18-.4-.26a.58.58,0,0,0-.32-.12.351.351,0,0,0-.2.05.7.7,0,0,0-.16.14l-.45.76a3.477,3.477,0,0,0,.55.45,3.362,3.362,0,0,0,.68.35,3.832,3.832,0,0,0,.75.23,4.255,4.255,0,0,0,.8.08,3.278,3.278,0,0,0,1.25-.22,2.626,2.626,0,0,0,.92-.58,2.527,2.527,0,0,0,.57-.87,2.8,2.8,0,0,0,.2-1.08A2.066,2.066,0,0,0,477.8,107.41Z"/><path class="a" d="M484.874,103.74v-1.25h-5.34v8.47h5.34V109.7h-3.75v-2.39h2.96v-1.22h-2.96v-2.35Z"/><path class="a" d="M491.144,107.84a1.507,1.507,0,0,0-.52-.49,3.284,3.284,0,0,0,.8-.38,2.3,2.3,0,0,0,.58-.54,2.55,2.55,0,0,0,.37-.69,2.738,2.738,0,0,0,.12-.81,2.643,2.643,0,0,0-.18-.99,2.067,2.067,0,0,0-.58-.77,2.946,2.946,0,0,0-1.02-.5,5.3,5.3,0,0,0-1.48-.18h-2.59v8.47h1.58v-3.31h.67a.815.815,0,0,1,.36.07.575.575,0,0,1,.22.22l1.78,2.71a.746.746,0,0,0,.24.23.671.671,0,0,0,.35.08h1.42Zm-1.16-1.43a2.273,2.273,0,0,1-.77.11h-.99v-2.81h1.01a2,2,0,0,1,1.3.35,1.208,1.208,0,0,1,.42.99,1.625,1.625,0,0,1-.1.59,1.233,1.233,0,0,1-.32.46A1.548,1.548,0,0,1,489.984,106.41Z"/><path class="a" d="M500.784,102.49a.524.524,0,0,0-.33.11.723.723,0,0,0-.19.25l-1.98,5.17a6.517,6.517,0,0,0-.34,1.19c-.05-.23-.11-.44-.17-.64s-.12-.38-.19-.55l-1.99-5.17a.65.65,0,0,0-.2-.26.483.483,0,0,0-.33-.1h-1.27l3.42,8.47h1.42l3.43-8.47Z"/><path class="a" d="M503.494,102.49v8.47h1.58v-8.47Z"/><path class="a" d="M513.154,108.97a.32.32,0,0,0-.14.03.5.5,0,0,0-.12.08,2.55,2.55,0,0,1-.39.3,2.028,2.028,0,0,1-.42.2,3.377,3.377,0,0,1-.48.11,5.094,5.094,0,0,1-.58.03,2.43,2.43,0,0,1-1.01-.2,2.36,2.36,0,0,1-.82-.58,2.792,2.792,0,0,1-.54-.94,3.6,3.6,0,0,1-.21-1.27,3.525,3.525,0,0,1,.21-1.25,2.673,2.673,0,0,1,.56-.94,2.447,2.447,0,0,1,.86-.59,2.8,2.8,0,0,1,1.1-.21,2.838,2.838,0,0,1,.84.1,3.258,3.258,0,0,1,.55.23c.14.09.26.16.36.23a.447.447,0,0,0,.27.11.3.3,0,0,0,.2-.06.345.345,0,0,0,.12-.12l.53-.73a3.926,3.926,0,0,0-1.21-.8,4.189,4.189,0,0,0-1.65-.3,4.644,4.644,0,0,0-1.77.32,3.932,3.932,0,0,0-2.26,2.26,4.7,4.7,0,0,0-.32,1.75,5.122,5.122,0,0,0,.29,1.74,3.983,3.983,0,0,0,.81,1.37,3.942,3.942,0,0,0,1.29.9,4.366,4.366,0,0,0,1.7.32,4.284,4.284,0,0,0,1.8-.34,3.321,3.321,0,0,0,1.27-.98l-.62-.67A.27.27,0,0,0,513.154,108.97Z"/><path class="a" d="M520.884,103.74v-1.25h-5.35v8.47h5.35V109.7h-3.76v-2.39h2.96v-1.22h-2.96v-2.35Z"/><path class="a" d="M527.514,107.41a1.991,1.991,0,0,0-.44-.62,2.474,2.474,0,0,0-.63-.42,7.756,7.756,0,0,0-.72-.3c-.24-.08-.48-.16-.72-.23a3.989,3.989,0,0,1-.62-.26,1.305,1.305,0,0,1-.45-.34.723.723,0,0,1-.16-.49,1.176,1.176,0,0,1,.08-.43.838.838,0,0,1,.25-.34,1.234,1.234,0,0,1,.41-.22,1.911,1.911,0,0,1,.57-.08,2,2,0,0,1,.63.09,3.5,3.5,0,0,1,.47.2c.13.08.24.14.34.21a.538.538,0,0,0,.27.09.361.361,0,0,0,.2-.06.4.4,0,0,0,.15-.18l.38-.74a3.121,3.121,0,0,0-1.07-.66,4.178,4.178,0,0,0-1.39-.23,3.356,3.356,0,0,0-1.18.2,2.75,2.75,0,0,0-.87.55,2.206,2.206,0,0,0-.53.78,2.172,2.172,0,0,0-.19.9,2.48,2.48,0,0,0,.17.97,1.862,1.862,0,0,0,.44.66,2.133,2.133,0,0,0,.63.43,6.155,6.155,0,0,0,.71.28c.24.08.48.15.72.22a4.6,4.6,0,0,1,.63.24,1.443,1.443,0,0,1,.44.36.846.846,0,0,1,.16.54,1.162,1.162,0,0,1-.36.92,1.587,1.587,0,0,1-1.05.32,2.107,2.107,0,0,1-.75-.12,3.129,3.129,0,0,1-.55-.27c-.15-.1-.28-.18-.4-.26a.553.553,0,0,0-.31-.12.364.364,0,0,0-.21.05.5.5,0,0,0-.15.14l-.46.76a3.564,3.564,0,0,0,.56.45,3.282,3.282,0,0,0,.67.35,3.928,3.928,0,0,0,.76.23,4.235,4.235,0,0,0,.79.08,3.243,3.243,0,0,0,1.25-.22,2.669,2.669,0,0,0,.93-.58,2.528,2.528,0,0,0,.57-.87,3,3,0,0,0,.2-1.08A2.222,2.222,0,0,0,527.514,107.41Z"/><path class="a" d="M537.194,103.74v-1.25h-5.34v8.47h1.59v-3.45h3.17v-1.26h-3.17v-2.51Z"/><path class="a" d="M546.6,105a4.217,4.217,0,0,0-.87-1.37,3.99,3.99,0,0,0-1.36-.9,4.51,4.51,0,0,0-1.75-.33,4.752,4.752,0,0,0-1.76.32,4.031,4.031,0,0,0-2.23,2.28,4.666,4.666,0,0,0-.31,1.73,4.614,4.614,0,0,0,.31,1.72,4.125,4.125,0,0,0,.88,1.38,3.947,3.947,0,0,0,1.35.9,4.56,4.56,0,0,0,1.76.33,4.51,4.51,0,0,0,1.75-.33,3.99,3.99,0,0,0,1.36-.9,4.263,4.263,0,0,0,.87-1.38,4.612,4.612,0,0,0,.31-1.72A4.665,4.665,0,0,0,546.6,105Zm-1.49,2.98a2.773,2.773,0,0,1-.53.94,2.409,2.409,0,0,1-.84.59,3.236,3.236,0,0,1-2.24,0,2.545,2.545,0,0,1-.85-.59,2.617,2.617,0,0,1-.53-.94,3.772,3.772,0,0,1-.19-1.25,3.731,3.731,0,0,1,.19-1.25,2.534,2.534,0,0,1,.53-.94,2.435,2.435,0,0,1,.85-.6,3.236,3.236,0,0,1,2.24,0,2.309,2.309,0,0,1,.84.6,2.681,2.681,0,0,1,.53.94,4.012,4.012,0,0,1,.18,1.25A4.057,4.057,0,0,1,545.114,107.98Z"/><path class="a" d="M553.054,107.84a1.482,1.482,0,0,0-.51-.49,3.212,3.212,0,0,0,.79-.38,2.347,2.347,0,0,0,.59-.54,2.831,2.831,0,0,0,.36-.69,2.738,2.738,0,0,0,.12-.81,2.643,2.643,0,0,0-.18-.99,1.966,1.966,0,0,0-.58-.77,2.892,2.892,0,0,0-1.01-.5,5.426,5.426,0,0,0-1.49-.18h-2.58v8.47h1.57v-3.31h.68a.8.8,0,0,1,.35.07.575.575,0,0,1,.22.22l1.78,2.71a.684.684,0,0,0,.25.23.613.613,0,0,0,.34.08h1.42Zm-1.16-1.43a2.273,2.273,0,0,1-.77.11h-.99v-2.81h1.01a1.979,1.979,0,0,1,1.3.35,1.208,1.208,0,0,1,.42.99,1.625,1.625,0,0,1-.1.59,1.233,1.233,0,0,1-.32.46A1.465,1.465,0,0,1,551.894,106.41Z"/><path class="a" d="M410.824,118.81v-1.25h-5.35v8.47h1.59v-3.45h3.17v-1.26h-3.17v-2.51Z"/><path class="a" d="M415.674,117.56h-1.62l-3.33,8.47h1.23a.544.544,0,0,0,.52-.35l.63-1.73h3.51l.64,1.73a.578.578,0,0,0,.19.25.518.518,0,0,0,.33.1h1.22Zm-2.16,5.27,1.03-2.8c.05-.13.1-.28.16-.45s.1-.36.16-.56c.05.2.11.38.16.55s.11.32.16.45l1.03,2.81Z"/><path class="a" d="M428.224,117.56a.972.972,0,0,0-.18.01.291.291,0,0,0-.14.03.259.259,0,0,0-.11.07.5.5,0,0,0-.1.14l-2.51,4.7c-.06.12-.13.25-.19.39s-.11.27-.17.42c-.05-.14-.11-.28-.16-.41a3.534,3.534,0,0,0-.19-.39l-2.53-4.71a.5.5,0,0,0-.1-.14.259.259,0,0,0-.11-.07.319.319,0,0,0-.14-.03.972.972,0,0,0-.18-.01h-1.19v8.47h1.39v-5.47c0-.11-.01-.22-.01-.34s-.02-.25-.03-.38l2.59,4.82a.732.732,0,0,0,.23.26.581.581,0,0,0,.33.09h.22a.571.571,0,0,0,.32-.09.648.648,0,0,0,.23-.26l2.56-4.8c-.01.12-.02.25-.02.37s-.01.23-.01.33v5.47h1.39v-8.47Z"/><path class="a" d="M431.664,117.56v8.47h1.59v-8.47Z"/><path class="a" d="M437.084,124.73v-7.17H435.5v8.47h4.97v-1.3Z"/><path class="a" d="M442.114,117.56v8.47h1.58v-8.47Z"/><path class="a" d="M451.294,118.81v-1.25h-5.35v8.47h5.35v-1.26h-3.76v-2.39h2.96v-1.22h-2.96v-2.35Z"/><path class="a" d="M457.924,122.48a1.992,1.992,0,0,0-.44-.62,2.475,2.475,0,0,0-.63-.42,5.739,5.739,0,0,0-.72-.3c-.24-.08-.48-.16-.72-.23a3.987,3.987,0,0,1-.62-.26,1.306,1.306,0,0,1-.45-.34.724.724,0,0,1-.16-.49,1.175,1.175,0,0,1,.08-.43.776.776,0,0,1,.25-.34,1.077,1.077,0,0,1,.41-.22,1.911,1.911,0,0,1,.57-.08,1.994,1.994,0,0,1,.63.09,3.494,3.494,0,0,1,.47.2c.13.08.25.14.34.2a.476.476,0,0,0,.27.1.361.361,0,0,0,.2-.06.347.347,0,0,0,.15-.18l.38-.74a3.122,3.122,0,0,0-1.07-.66,3.939,3.939,0,0,0-1.39-.23,3.055,3.055,0,0,0-1.17.2,2.689,2.689,0,0,0-.88.55,2.206,2.206,0,0,0-.53.78,2.172,2.172,0,0,0-.19.9,2.515,2.515,0,0,0,.17.97,1.863,1.863,0,0,0,.44.66,2.133,2.133,0,0,0,.63.43,6.155,6.155,0,0,0,.71.28c.24.08.48.15.72.22a4.6,4.6,0,0,1,.63.24,1.443,1.443,0,0,1,.44.36.846.846,0,0,1,.16.54,1.162,1.162,0,0,1-.36.92,1.587,1.587,0,0,1-1.05.32,2.107,2.107,0,0,1-.75-.12,3.13,3.13,0,0,1-.55-.27c-.15-.1-.28-.18-.4-.26a.553.553,0,0,0-.31-.12.364.364,0,0,0-.21.05.5.5,0,0,0-.15.14l-.46.75a3.611,3.611,0,0,0,.56.46,3.283,3.283,0,0,0,.67.35,4.151,4.151,0,0,0,.76.23,4.235,4.235,0,0,0,.79.08,3.243,3.243,0,0,0,1.25-.22,2.669,2.669,0,0,0,.93-.58,2.477,2.477,0,0,0,.57-.88,2.909,2.909,0,0,0,.2-1.07A2.223,2.223,0,0,0,457.924,122.48Z"/><path class="a" d="M468.024,124.19a4.526,4.526,0,0,0,.62-1.29,4.821,4.821,0,0,0,.22-1.48h-.9a.277.277,0,0,0-.3.3,4.679,4.679,0,0,1-.16.83,3.342,3.342,0,0,1-.31.78l-2.25-2.34a3.359,3.359,0,0,1-.32-.37,2.173,2.173,0,0,1-.22-.34,1.756,1.756,0,0,1-.12-.32,1.954,1.954,0,0,1-.03-.34,1.052,1.052,0,0,1,.07-.4.9.9,0,0,1,.2-.34,1.144,1.144,0,0,1,.33-.23,1.231,1.231,0,0,1,.44-.08.969.969,0,0,1,.36.06,1.079,1.079,0,0,1,.28.16,1.16,1.16,0,0,1,.2.24,1.849,1.849,0,0,1,.13.29.42.42,0,0,0,.13.18.345.345,0,0,0,.18.05h.07l.92-.2a1.976,1.976,0,0,0-.19-.7,1.924,1.924,0,0,0-.46-.6,2.233,2.233,0,0,0-.7-.43,2.65,2.65,0,0,0-.92-.15,2.677,2.677,0,0,0-1.01.17,2.041,2.041,0,0,0-.75.47,1.889,1.889,0,0,0-.47.68,2.2,2.2,0,0,0-.16.84,2.677,2.677,0,0,0,.14.83,3.446,3.446,0,0,0,.46.86,3.967,3.967,0,0,0-.69.42,3.575,3.575,0,0,0-.55.55,2.625,2.625,0,0,0-.35.66,2.115,2.115,0,0,0-.13.75,2.206,2.206,0,0,0,.22,1.01,2.392,2.392,0,0,0,.6.77,2.489,2.489,0,0,0,.84.48,2.855,2.855,0,0,0,.96.17,4.281,4.281,0,0,0,1.49-.26,4.4,4.4,0,0,0,1.25-.71l.59.6a1.542,1.542,0,0,0,.14.13.6.6,0,0,0,.15.09.749.749,0,0,0,.16.04,1.212,1.212,0,0,0,.2.01h1.42Zm-2.42.62a2.615,2.615,0,0,1-.94.16,1.627,1.627,0,0,1-.55-.09,1.326,1.326,0,0,1-.44-.28,1.17,1.17,0,0,1-.31-.44,1.5,1.5,0,0,1-.11-.58,1.7,1.7,0,0,1,.21-.82,2.04,2.04,0,0,1,.69-.68l2.22,2.28A2.6,2.6,0,0,1,465.6,124.81Z"/><path class="a" d="M479.5,119.17a2.129,2.129,0,0,0-.6-.85,2.78,2.78,0,0,0-1.02-.56,4.977,4.977,0,0,0-1.47-.2h-2.77v8.47h1.58v-2.98h1.19a4.769,4.769,0,0,0,1.44-.2,2.81,2.81,0,0,0,1.02-.58,2.277,2.277,0,0,0,.62-.88,3.154,3.154,0,0,0,.2-1.13A2.973,2.973,0,0,0,479.5,119.17Zm-1.49,1.74a1.163,1.163,0,0,1-.32.49,1.263,1.263,0,0,1-.53.31,2.418,2.418,0,0,1-.75.11h-1.19v-3.04h1.19a2.433,2.433,0,0,1,.75.1,1.363,1.363,0,0,1,.53.3,1.1,1.1,0,0,1,.32.47,1.658,1.658,0,0,1,.11.61A1.884,1.884,0,0,1,478.014,120.91Z"/><path class="a" d="M486.834,117.56v3.64h-3.97v-3.64h-1.59v8.47h1.59v-3.7h3.97v3.7h1.59v-8.47Z"/><path class="a" d="M495.944,117.56a.5.5,0,0,0-.33.11.8.8,0,0,0-.19.24l-1.54,2.83c-.09.17-.17.32-.24.47s-.12.3-.17.45c-.05-.14-.11-.29-.18-.44s-.15-.31-.24-.48l-1.55-2.83a.818.818,0,0,0-.2-.25.482.482,0,0,0-.33-.1h-1.38l3.08,5.18v3.29h1.58v-3.29l3.08-5.18Z"/><path class="a" d="M503.424,122.48a1.992,1.992,0,0,0-.44-.62,2.664,2.664,0,0,0-.63-.42,6.436,6.436,0,0,0-.72-.3c-.24-.08-.48-.16-.72-.23a3.987,3.987,0,0,1-.62-.26,1.218,1.218,0,0,1-.45-.34.724.724,0,0,1-.16-.49,1,1,0,0,1,.08-.43.776.776,0,0,1,.25-.34,1.077,1.077,0,0,1,.41-.22,1.911,1.911,0,0,1,.57-.08,1.994,1.994,0,0,1,.63.09,3.494,3.494,0,0,1,.47.2c.13.08.24.14.34.2a.475.475,0,0,0,.26.1.37.37,0,0,0,.21-.06.473.473,0,0,0,.15-.18l.38-.74a3.074,3.074,0,0,0-1.08-.66,3.845,3.845,0,0,0-1.38-.23,3.143,3.143,0,0,0-1.18.2,2.749,2.749,0,0,0-.87.55,2.372,2.372,0,0,0-.54.78,2.332,2.332,0,0,0-.18.9,2.515,2.515,0,0,0,.17.97,1.863,1.863,0,0,0,.44.66,2.133,2.133,0,0,0,.63.43,6.155,6.155,0,0,0,.71.28c.24.08.48.15.72.22a4.013,4.013,0,0,1,.62.24,1.489,1.489,0,0,1,.45.36.846.846,0,0,1,.16.54,1.135,1.135,0,0,1-.37.92,1.54,1.54,0,0,1-1.04.32,2.107,2.107,0,0,1-.75-.12,3.13,3.13,0,0,1-.55-.27c-.15-.1-.29-.18-.4-.26a.555.555,0,0,0-.32-.12.351.351,0,0,0-.2.05.5.5,0,0,0-.15.14l-.46.75a3.2,3.2,0,0,0,.56.46,3.283,3.283,0,0,0,.67.35,3.728,3.728,0,0,0,.76.23,4.151,4.151,0,0,0,.79.08,3.243,3.243,0,0,0,1.25-.22,2.538,2.538,0,0,0,.92-.58,2.372,2.372,0,0,0,.58-.88,2.909,2.909,0,0,0,.2-1.07A2.223,2.223,0,0,0,503.424,122.48Z"/><path class="a" d="M505.344,117.56v8.47h1.58v-8.47Z"/><path class="a" d="M515,124.04a.319.319,0,0,0-.14.03.831.831,0,0,0-.12.08,2.548,2.548,0,0,1-.39.3,2.712,2.712,0,0,1-.42.2,3.377,3.377,0,0,1-.48.11,5.093,5.093,0,0,1-.58.03,2.6,2.6,0,0,1-1.01-.2,2.5,2.5,0,0,1-.82-.58,2.792,2.792,0,0,1-.54-.94,3.6,3.6,0,0,1-.21-1.27,3.525,3.525,0,0,1,.21-1.25,2.673,2.673,0,0,1,.56-.94,2.447,2.447,0,0,1,.86-.59,3.214,3.214,0,0,1,1.94-.11,3.259,3.259,0,0,1,.55.23c.14.08.26.16.36.23a.447.447,0,0,0,.27.11.3.3,0,0,0,.2-.06.345.345,0,0,0,.12-.12l.53-.73a3.926,3.926,0,0,0-1.21-.8,4.19,4.19,0,0,0-1.65-.3,4.644,4.644,0,0,0-1.77.32,3.932,3.932,0,0,0-2.26,2.26,4.7,4.7,0,0,0-.32,1.75,5.122,5.122,0,0,0,.29,1.74,3.982,3.982,0,0,0,.81,1.37,3.942,3.942,0,0,0,1.29.9,4.366,4.366,0,0,0,1.7.32,4.53,4.53,0,0,0,1.81-.34,3.364,3.364,0,0,0,1.26-.98l-.62-.67A.27.27,0,0,0,515,124.04Z"/><path class="a" d="M517.584,117.56v8.47h1.58v-8.47Z"/><path class="a" d="M525.544,117.56h-1.62l-3.32,8.47h1.22a.5.5,0,0,0,.34-.11.51.51,0,0,0,.18-.24l.64-1.73h3.51l.63,1.73a.577.577,0,0,0,.19.25.529.529,0,0,0,.34.1h1.22Zm-2.16,5.27,1.03-2.8c.05-.13.1-.28.16-.45s.1-.36.16-.56c.05.2.11.38.17.55s.1.32.15.45l1.03,2.81Z"/><path class="a" d="M535.854,117.56v5.15c0,.11,0,.24.01.37s.02.26.03.4l-4.45-5.67c-.04-.05-.08-.1-.11-.13a.764.764,0,0,0-.11-.08.5.5,0,0,0-.13-.03.811.811,0,0,0-.17-.01h-.83v8.47h1.39v-5.2c0-.1,0-.21-.01-.34s-.01-.24-.03-.37l4.43,5.64a.686.686,0,0,0,.24.22.959.959,0,0,0,.31.05h.82v-8.47Z"/><path class="a" d="M544.224,122.48a2.019,2.019,0,0,0-.45-.62,2.42,2.42,0,0,0-.62-.42,7.327,7.327,0,0,0-.72-.3c-.25-.08-.48-.16-.72-.23a4.591,4.591,0,0,1-.63-.26,1.266,1.266,0,0,1-.44-.34.729.729,0,0,1-.17-.49,1,1,0,0,1,.09-.43.756.756,0,0,1,.24-.34,1.122,1.122,0,0,1,.42-.22,1.911,1.911,0,0,1,.57-.08,2,2,0,0,1,.63.09,3.333,3.333,0,0,1,.46.2c.14.08.25.14.35.2a.45.45,0,0,0,.26.1.317.317,0,0,0,.2-.06.346.346,0,0,0,.15-.18l.39-.74a3.266,3.266,0,0,0-1.08-.66,3.845,3.845,0,0,0-1.38-.23,3.108,3.108,0,0,0-1.18.2,2.749,2.749,0,0,0-.87.55,2.107,2.107,0,0,0-.54.78,2.332,2.332,0,0,0-.18.9,2.526,2.526,0,0,0,.16.97,1.881,1.881,0,0,0,.45.66,2.222,2.222,0,0,0,.62.43,7.117,7.117,0,0,0,.72.28c.24.08.48.15.71.22a3.78,3.78,0,0,1,.63.24,1.443,1.443,0,0,1,.44.36.85.85,0,0,1,.17.54,1.135,1.135,0,0,1-.37.92,1.54,1.54,0,0,1-1.04.32,2.126,2.126,0,0,1-.76-.12,3.021,3.021,0,0,1-.54-.27c-.15-.1-.29-.18-.4-.26a.555.555,0,0,0-.32-.12.351.351,0,0,0-.2.05.7.7,0,0,0-.16.14l-.45.75a3.2,3.2,0,0,0,.56.46,3.284,3.284,0,0,0,.67.35,3.832,3.832,0,0,0,.75.23,4.341,4.341,0,0,0,.8.08,3.243,3.243,0,0,0,1.25-.22,2.626,2.626,0,0,0,.92-.58,2.5,2.5,0,0,0,.58-.88,2.9,2.9,0,0,0,.19-1.07A2.229,2.229,0,0,0,544.224,122.48Z"/><rect class="b" width="5.08" height="38.03" transform="translate(281.699 95.24)"/><path class="b" d="M332.582,127.03l-.339.35c-.681.69-1.321,1.28-1.951,1.82a20.529,20.529,0,0,1-1.989,1.54,18.614,18.614,0,0,1-3.951,2.11c-.12.05-.239.09-.37.14-.23.08-.469.16-.7.23a21.065,21.065,0,0,1-6.5.94h-.1c-.279,0-.56,0-.84-.02a19.736,19.736,0,0,1-4.65-.76c-.389-.11-.77-.23-1.15-.37-.36-.13-.719-.27-1.069-.42-.471-.2-.951-.43-1.42-.68a19.509,19.509,0,0,1-10-14.75c-.04-.26-.08-.53-.1-.81a20.8,20.8,0,0,1-.1-2.1v-.11a21.559,21.559,0,0,1,.38-4.05c.071-.34.14-.68.23-1.01a19.417,19.417,0,0,1,18.98-14.97c.131,0,.26,0,.39.01.62,0,1.241.03,1.84.09.08,0,.16.01.231.01a20.027,20.027,0,0,1,12.61,6.02l.35.33-.161.18-3.26,3.49-.159.17-.351-.33c-3.73-3.54-7.18-5.05-11.54-5.05-8.069,0-14.14,6.45-14.14,15v.11a15.575,15.575,0,0,0,4.81,11.49,14.339,14.339,0,0,0,1.87,1.45,13.531,13.531,0,0,0,5.65,2.06c.33.04.67.07,1.01.09.271.01.53.02.8.02,4.2,0,7.36-1.29,10.92-4.45.3-.27.61-.55.911-.84l.339-.33.11.09.25.22Z"/><path class="c" d="M312.3,121.022a1.975,1.975,0,0,0-2.067.34,2.35,2.35,0,0,1,1.761.321,4.876,4.876,0,0,1,1.243,1.25c.351.508.677,1.049.992,1.615s.615,1.152,1.01,1.725a7.239,7.239,0,0,0-1.243-3.887A3.865,3.865,0,0,0,312.3,121.022Z"/><path class="c" d="M320.722,123.937a9.1,9.1,0,0,1,.6-1.471,5.21,5.21,0,0,1,.891-1.263,4.5,4.5,0,0,1,1.311-.943,2.669,2.669,0,0,0-1.662.525,3.811,3.811,0,0,0-1.163,1.356,5.037,5.037,0,0,0-.508,1.683c-.027.289-.035.58-.034.866.039.289.054.573.114.855Z"/><path class="c" d="M327.077,119.86a.539.539,0,0,1,.117-.077,3.731,3.731,0,0,0,.554-.344,4.226,4.226,0,0,0,.482-.414,3.9,3.9,0,0,0,.391-.46,3.691,3.691,0,0,0,.3-.5,3.64,3.64,0,0,0,.353-1.063,3.743,3.743,0,0,0,.054-.549,4.045,4.045,0,0,0-.026-.55,3.924,3.924,0,0,0-.536-1.56,3.971,3.971,0,0,0-.717-.878,4.032,4.032,0,0,0-.46-.363,4.145,4.145,0,0,0-.526-.3,4.252,4.252,0,0,0-.589-.23,4.637,4.637,0,0,0-.65-.149l-.1-.015a3.882,3.882,0,0,0-4.552,4.251,1.878,1.878,0,0,0,.926,3.491c-2.046-1.579-.362-2.852-.016-3.16a2.9,2.9,0,0,1,3.569-3.077c3.358.753,2.691,4.94.209,6.38a6.473,6.473,0,0,1,.67.23,2.663,2.663,0,0,1,.569.325,2.1,2.1,0,0,1,.455.458,2.8,2.8,0,0,1,.191.283c.065.1.111.208.185.315a1.774,1.774,0,0,0-.01-.378,1.5,1.5,0,0,0-.109-.367,1.406,1.406,0,0,0-.248-.392c-.1-.118-.2-.231-.308-.344a2.3,2.3,0,0,1-.2-.23.251.251,0,0,1-.038-.261A.248.248,0,0,1,327.077,119.86Z"/><path class="c" d="M316.793,116.965a2.412,2.412,0,0,0,1.265-.05,4.257,4.257,0,0,0,1.072-.5,5.805,5.805,0,0,0,.907-.705,7.556,7.556,0,0,0,.765-.828,13.79,13.79,0,0,0,2.085-3.84,21.316,21.316,0,0,0,.628-2.038,9.825,9.825,0,0,0,.348-2.138,4.219,4.219,0,0,0-.348-1.848,5.067,5.067,0,0,0-.668-1.092A2.654,2.654,0,0,0,321,102.8c-.049,0-.414.057-.426.043-3.286-3.711-15.317.591-11.677,13.279-1.016-10.207,6.2-14.963,10.715-12.693a7.2,7.2,0,0,0-4.567,3.257,9.326,9.326,0,0,1,5.373-2.766c.986-.048,1.8.953,2.2,1.745a4.265,4.265,0,0,1,.335.988,1.8,1.8,0,0,1-.019,1.07,1.878,1.878,0,0,1-.555.743,6.446,6.446,0,0,1-1.737.994,31.92,31.92,0,0,1-3.278,1.071l-.414.121a27.17,27.17,0,0,0-3.165,1.1,6.989,6.989,0,0,0-2.814,2.023,15.011,15.011,0,0,0-1.78,3.211,16.545,16.545,0,0,0-1.167,3.6,3.247,3.247,0,0,0,1.008,3.3c-.062-.049.017-.573.022-.662q.02-.35.056-.7c.047-.452.113-.9.194-1.347.185-1.022.436-2.031.715-3.03a21.7,21.7,0,0,1,.865-2.784,5.242,5.242,0,0,1,1.073-1.638,5.176,5.176,0,0,1,1.739-.987,26.969,26.969,0,0,1,2.8-.911,31.46,31.46,0,0,0,3.846-1.243,7.206,7.206,0,0,0,2.682-1.9c.016-.018.008-.008,0,0a7.847,7.847,0,0,1-.8,2.073,18.144,18.144,0,0,1-2.156,3.527,6.987,6.987,0,0,1-1.442,1.355,2.565,2.565,0,0,1-1.673.547,2.069,2.069,0,0,1-1.363-1.121,8.559,8.559,0,0,1-.8-1.935,5.707,5.707,0,0,0,.159,1.529,8.8,8.8,0,0,0-.3,4.821,7.245,7.245,0,0,0,2.084,2.892,9.719,9.719,0,0,1,1.135,1.336,12.633,12.633,0,0,1,.891,1.6,3.732,3.732,0,0,0-.245-1.946,5.128,5.128,0,0,0-1.11-1.646c-.417-.417-.881-.779-1.311-1.182-.358-.335-.894-.654-.94-1.191a4.792,4.792,0,0,1,.74-2.878A2.053,2.053,0,0,0,316.793,116.965Z"/><path class="b" d="M361.912,94.97h-4.57l-5.085,11.239c-2.643,5.844-5.206,11.732-7.933,17.537-2.107,4.486-3.85,9.093-6.681,13.206a37.584,37.584,0,0,1-10.092,9.891,39.98,39.98,0,0,1-26.939,6.3,38.908,38.908,0,0,1-18.91-7.9v5.85c0,.376,2.65,1.6,3.029,1.81q1.622.883,3.314,1.628a43.567,43.567,0,0,0,21.866,3.468,43.989,43.989,0,0,0,33.6-21.265,109.3,109.3,0,0,0,5.27-11.024l1.01-2.237h19.52l4.32,9.78h5.6Zm-10.03,23.75,7.68-17.16,7.65,17.16Z"/><path class="b" d="M305.7,75.03a39.224,39.224,0,0,1,33.291,18.5l3.359-3.59a43.977,43.977,0,0,0-80.62,24.32,42.249,42.249,0,0,0,.281,4.93l-18.75-23.95h-5.341v38.03H243V103.84l23.04,29.43h.011c.009.01.009.03.02.04h5.359a.351.351,0,0,1-.05-.08,39.23,39.23,0,0,1,34.32-58.2Z"/></g></svg>