<svg xmlns="http://www.w3.org/2000/svg" width="80" height="80.003" viewBox="0 0 80 80.003"><defs><style>.a{fill:#005387;}.b{fill:#fff;}.c{fill:none;stroke:#009dac;stroke-miterlimit:10;stroke-width:5px;}</style></defs><g transform="translate(-1206.5 -821.5)"><rect class="a" width="75" height="75" rx="37.5" transform="translate(1209 824)"/><g transform="translate(1031.883 810.083)"><path class="b" d="M200.287,51a4.48,4.48,0,0,1-4.468-4.785l.829-12.178a.694.694,0,0,1,.69-.645h4.672a.692.692,0,1,1,0,1.383h-4.025L197.2,46.31a3.1,3.1,0,0,0,2.4,3.229V40.607a.692.692,0,0,1,1.383,0v9.7A.693.693,0,0,1,200.287,51Z" transform="translate(1.577 6.218)"/><path class="b" d="M202.634,59.614h-4.555a.691.691,0,0,1-.69-.69V39.465a.692.692,0,0,1,1.383,0V58.231h3.169v-16a.692.692,0,1,1,1.383,0v16.7A.691.691,0,0,1,202.634,59.614Z" transform="translate(3.785 13.74)"/><path class="b" d="M202.237,38.067a4.563,4.563,0,1,1,4.562-4.562A4.569,4.569,0,0,1,202.237,38.067Zm0-7.743a3.18,3.18,0,1,0,3.179,3.181A3.184,3.184,0,0,0,202.237,30.324Z" transform="translate(4.182 0)"/><path class="b" d="M209.527,51a.691.691,0,0,1-.69-.693v-9.7a.692.692,0,0,1,1.383,0v8.932a3.1,3.1,0,0,0,2.4-3.229l-.786-11.535H207.8a.692.692,0,0,1,0-1.383h4.672a.692.692,0,0,1,.69.645L214,46.214A4.477,4.477,0,0,1,209.527,51Z" transform="translate(17.372 6.218)"/><path class="b" d="M211.177,59.614h-4.552a.693.693,0,0,1-.693-.69v-16.7a.692.692,0,1,1,1.383,0v16h3.172V39.465a.692.692,0,0,1,1.383,0V58.924A.691.691,0,0,1,211.177,59.614Z" transform="translate(15.722 13.74)"/><path class="b" d="M209.78,34.8H201.6a.692.692,0,1,1,0-1.383h8.184a.692.692,0,0,1,0,1.383Z" transform="translate(8.695 6.251)"/><path class="b" d="M208.881,38.067a4.563,4.563,0,1,1,4.562-4.562A4.569,4.569,0,0,1,208.881,38.067Zm0-7.743a3.18,3.18,0,1,0,3.179,3.181A3.184,3.184,0,0,0,208.881,30.324Z" transform="translate(13.465 0)"/><path class="b" d="M233.393,48.308h-38.02a.69.69,0,1,1,0-1.381h38.02a.69.69,0,1,1,0,1.381Z" transform="translate(0 25.131)"/><path class="b" d="M203.3,53a.691.691,0,0,1-.693-.69V44.2a.692.692,0,1,1,1.383,0v8.107A.691.691,0,0,1,203.3,53Z" transform="translate(11.08 20.355)"/><path class="b" d="M202.053,47.537a.691.691,0,0,1-.69-.69V41.031a.69.69,0,1,1,1.381,0v5.816A.691.691,0,0,1,202.053,47.537Z" transform="translate(9.338 15.924)"/><path class="b" d="M205.045,54.039h-2.992a.691.691,0,0,1-.69-.69V43.455a.69.69,0,1,1,1.381,0v9.2h2.3a.692.692,0,0,1,0,1.383Z" transform="translate(9.338 19.315)"/><path class="b" d="M206.292,54.041H203.3a.692.692,0,1,1,0-1.383h2.3v-9.2a.692.692,0,1,1,1.383,0V53.35A.691.691,0,0,1,206.292,54.041Z" transform="translate(11.08 19.314)"/><path class="b" d="M209.486,49.9a.691.691,0,0,1-.69-.69V43.4a.692.692,0,1,1,1.383,0v4.989a1.805,1.805,0,0,0,1.105-1.764l-.369-6.592h-8.836l-.369,6.592a1.8,1.8,0,0,0,1.8,1.9.69.69,0,0,1,0,1.381,3.181,3.181,0,0,1-3.176-3.359l.376-6.722a1.246,1.246,0,0,1,1.242-1.177h9.1a1.244,1.244,0,0,1,1.242,1.177l.376,6.722a3.177,3.177,0,0,1-3.176,3.359Z" transform="translate(7.886 13.559)"/><path class="b" d="M208.034,43.81h-5.981a.692.692,0,0,1,0-1.383h5.981a.692.692,0,1,1,0,1.383Z" transform="translate(9.338 18.843)"/><path class="b" d="M204.689,41.748a3.07,3.07,0,1,1,3.068-3.068A3.073,3.073,0,0,1,204.689,41.748Zm0-4.756a1.686,1.686,0,1,0,1.685,1.688A1.69,1.69,0,0,0,204.689,36.992Z" transform="translate(9.694 9.317)"/></g><g transform="translate(241 86)"><path class="c" d="M163.08-55.084a37.5,37.5,0,0,1,37.5-37.5" transform="translate(804.92 830.587)"/><path class="c" d="M163.08-55.084a37.5,37.5,0,0,1,37.5-37.5" transform="translate(1206.08 720.416) rotate(180)"/></g></g></svg>