<svg xmlns="http://www.w3.org/2000/svg" width="701.225" height="809.727" viewBox="0 0 701.225 809.727"><defs><style>.a{fill:#c66b7f;}</style></defs><g transform="translate(-307.931 -101.56)"><path class="a" d="M377.954,125.683c-23.067-9.108-51.539-5.21-67.724,11.14,22.214-4.456,41.971.459,57.7,10.518,15.825,10.157,28.866,24.836,40.727,40.956,11.5,16.644,22.182,34.37,32.5,52.915,10.648,18.447,20.15,37.745,33.092,56.519a237.19,237.19,0,0,0-40.726-127.356C419.335,152.026,401.675,134.169,377.954,125.683Z" transform="translate(73.025 613.555)"/><path class="a" d="M338.83,240.838c6-16.644,10.977-33.387,19.495-48.2a170.716,170.716,0,0,1,29.194-41.382c12.057-11.927,25.819-23.165,42.955-30.9-19-1.049-38.466,5.8-54.456,17.2-16.316,11.205-28.865,27.227-38.105,44.429-9.337,17.332-13.924,36.369-16.644,55.143-.885,9.469-1.147,19-1.114,28.375,1.278,9.468,1.769,18.774,3.735,28.014Z" transform="translate(388.191 593.91)"/><path class="a" d="M543.421,357.713a17.659,17.659,0,0,1,3.834-2.523,122.223,122.223,0,0,0,18.151-11.271A138.469,138.469,0,0,0,581.2,330.354a127.618,127.618,0,0,0,12.811-15.072,120.884,120.884,0,0,0,9.96-16.219,119.267,119.267,0,0,0,11.567-34.829,122.556,122.556,0,0,0,1.77-17.988,132.6,132.6,0,0,0-.852-18.021,128.585,128.585,0,0,0-17.562-51.113A130.117,130.117,0,0,0,575.4,148.346a132.069,132.069,0,0,0-15.072-11.893,135.786,135.786,0,0,0-17.235-9.83,139.294,139.294,0,0,0-19.3-7.536,151.958,151.958,0,0,0-21.3-4.882c-1.114-.164-2.228-.328-3.375-.491C415.278,102.443,341.721,163.32,349.978,253c-41.873,27.555-46,102.881,30.34,114.382-67.036-51.736-11.861-93.445-.524-103.537-.328-65,48.23-116.216,116.937-100.817C606.755,187.7,584.9,324.883,503.579,372.064a212,212,0,0,1,21.953,7.536,87.248,87.248,0,0,1,18.643,10.648,68.912,68.912,0,0,1,14.907,15.006c2.392,2.785,4.129,6.062,6.259,9.273,2.13,3.244,3.636,6.815,6.061,10.321a58.1,58.1,0,0,0-.328-12.385c-.917-4-1.6-8.257-3.57-12.025a46.058,46.058,0,0,0-8.127-12.844c-3.243-3.866-6.651-7.569-10.091-11.271a75.5,75.5,0,0,1-6.553-7.536c-1.8-2.49-2.687-5.668-1.245-8.551A8.127,8.127,0,0,1,543.421,357.713Z" transform="translate(391.82 343.453)"/><path class="a" d="M598.289,606.312c14.089,3.572,28.669,2.13,41.448-1.638a139.493,139.493,0,0,0,35.123-16.317,190.245,190.245,0,0,0,29.717-23.1,247.6,247.6,0,0,0,25.065-27.129c30.537-38.2,51.8-81.551,68.314-125.816a698.2,698.2,0,0,0,20.577-66.775c5.8-23.2,10.877-46.689,11.4-70.051.459-20.38-2.523-40.661-11.4-60.549a166.013,166.013,0,0,0-21.887-35.779C781.869,160.68,760.736,143.118,736,142.234c-1.606-.066-13.565,1.868-13.958,1.409C614.376,22.053,220.184,163.006,339.448,578.725,306.159,244.3,542.49,88.467,690.521,162.842c-48.033,14.548-113.234,39.842-149.636,106.715,51.572-56.847,121.884-81.617,176.045-90.627,32.306-1.573,59.14,31.225,72.083,57.175,5.176,10.387,8.453,21.1,10.976,32.372,2.653,11.861,3.833,23.394-.623,35.058-3.637,9.567-10.387,17.693-18.184,24.344-16.612,14.22-36.861,24.246-56.913,32.568-34.8,14.449-71.328,24.508-107.4,35.091-4.522,1.31-9.042,2.654-13.564,3.964-35.091,10.387-70.117,21.428-103.7,36.074-36.074,15.76-67.463,35.19-92.2,66.283-25.328,31.814-41.578,68.577-58.321,105.207a542.089,542.089,0,0,0-38.237,117.855c-8.027,39.645-.229,81.617,33.028,108.091-2.032-1.606.556-18.774.72-21.69q.639-11.451,1.835-22.869c1.541-14.81,3.7-29.521,6.356-44.134,6.062-33.486,14.286-66.545,23.428-99.277,8.485-30.307,15.759-62.155,28.341-91.217,8.52-19.692,19.922-38.433,35.157-53.669,15.464-15.5,36.958-24.049,56.977-32.339,29.816-12.319,60.943-20.871,91.873-29.848,42.234-12.287,85.614-23.066,126.013-40.727,35.451-15.531,62.121-33.158,87.874-62.122.525-.59.263-.262,0,.033-10.419,38.99-13.76,42.824-26.113,67.921-20.183,41.152-42.529,81.223-70.64,115.561-14.09,17.037-29.685,32.535-47.248,44.4-17.594,11.6-37.286,20.609-54.815,17.923-17.627-2.163-33.551-17.693-44.658-36.73-11.4-19.036-19.463-40.923-26.212-63.4a187.025,187.025,0,0,0,5.21,50.1c-15.137,48.033-24.147,109.761-9.731,157.958,11.5,38.4,40.6,67.168,68.282,94.756a318.423,318.423,0,0,1,37.187,43.774c10.878,15.76,19.659,33.19,29.195,52.522,3.177-21.1.261-43.315-8.028-63.76-8.027-20.675-21.723-38.6-36.369-53.931-13.663-13.663-28.866-25.524-42.955-38.728-11.729-10.976-29.292-21.428-30.8-39.023-2.883-34.01,7.143-65.431,24.245-94.3A67.264,67.264,0,0,0,598.289,606.312Z" transform="translate(0 0)"/></g></svg>