<svg xmlns="http://www.w3.org/2000/svg" width="80" height="80.003" viewBox="0 0 80 80.003"><defs><style>.a{fill:#005387;}.b{fill:#fff;}.c{fill:none;stroke:#009dac;stroke-miterlimit:10;stroke-width:5px;}</style></defs><g transform="translate(-1206.5 -726.5)"><rect class="a" width="75" height="75" rx="37.5" transform="translate(1209 729)"/><g transform="translate(1105.797 738.394)"><path class="b" d="M152.584,45.75H128.421a2.284,2.284,0,0,1-2.281-2.284v-32.6a2.284,2.284,0,0,1,2.281-2.281h4.853a.7.7,0,0,1,.7.7v2.441a.888.888,0,0,0,.885.888h11.29a.888.888,0,0,0,.885-.888V9.286a.7.7,0,0,1,.7-.7h4.85a2.284,2.284,0,0,1,2.284,2.281v32.6A2.285,2.285,0,0,1,152.584,45.75ZM128.421,9.983a.886.886,0,0,0-.885.885v32.6a.886.886,0,0,0,.885.888h24.163a.887.887,0,0,0,.888-.888v-32.6a.886.886,0,0,0-.888-.885H148.43v1.744a2.284,2.284,0,0,1-2.281,2.284h-11.29a2.284,2.284,0,0,1-2.281-2.284V9.983Z" transform="translate(0 3.62)"/><path class="b" d="M149.569,40.325H128.036a.7.7,0,0,1-.7-.7V10.449a.7.7,0,0,1,.7-.7h3.537a.7.7,0,1,1,0,1.393h-2.84V38.932h20.14V11.145h-2.84a.7.7,0,1,1,0-1.393h3.537a.7.7,0,0,1,.7.7v29.18A.7.7,0,0,1,149.569,40.325Z" transform="translate(1.702 5.274)"/><path class="b" d="M142.373,17.631h-11.29a2.284,2.284,0,0,1-2.281-2.284V11.719a2.284,2.284,0,0,1,2.281-2.284h1.606a4.1,4.1,0,0,1,8.078,0h1.606a2.284,2.284,0,0,1,2.281,2.284v3.629A2.284,2.284,0,0,1,142.373,17.631Zm-11.29-6.8a.886.886,0,0,0-.885.888v3.629a.888.888,0,0,0,.885.888h11.29a.888.888,0,0,0,.885-.888V11.719a.886.886,0,0,0-.885-.888h-2.245a.7.7,0,0,1-.7-.7,2.7,2.7,0,1,0-5.4,0,.7.7,0,0,1-.7.7Z" transform="translate(3.776 0)"/><path class="b" d="M138.247,10.138h-7.26a.7.7,0,1,1,0-1.4h7.26a.7.7,0,1,1,0,1.4Z" transform="translate(5.887 3.84)"/><path class="b" d="M133.2,21.059a4.732,4.732,0,1,1,4.732-4.732A4.736,4.736,0,0,1,133.2,21.059Zm0-8.068a3.336,3.336,0,1,0,3.336,3.336A3.339,3.339,0,0,0,133.2,12.991Z" transform="translate(3.302 7.889)"/><path class="b" d="M133.72,14.659h-3.638a.7.7,0,1,1,0-1.4h3.638a.7.7,0,0,1,0,1.4Z" transform="translate(4.601 10.256)"/><path class="b" d="M130.833,17.545a.7.7,0,0,1-.7-.7V13.208a.7.7,0,0,1,1.4,0v3.638A.7.7,0,0,1,130.833,17.545Z" transform="translate(5.668 9.189)"/><path class="b" d="M138.815,14.659h-5.194a.7.7,0,0,1,0-1.4h5.194a.7.7,0,0,1,0,1.4Z" transform="translate(9.628 10.256)"/><path class="b" d="M139.382,15.914h-6.162a.7.7,0,0,1,0-1.4h6.162a.7.7,0,0,1,0,1.4Z" transform="translate(9.06 12.037)"/><path class="b" d="M145.14,17.606H129.164a.7.7,0,0,1,0-1.4H145.14a.7.7,0,0,1,0,1.4Z" transform="translate(3.302 14.439)"/><path class="b" d="M145.14,18.861H129.164a.7.7,0,0,1,0-1.4H145.14a.7.7,0,0,1,0,1.4Z" transform="translate(3.302 16.22)"/><path class="b" d="M145.14,20.114H129.164a.7.7,0,0,1,0-1.393H145.14a.7.7,0,1,1,0,1.393Z" transform="translate(3.302 18.002)"/><path class="b" d="M145.14,21.372H129.164a.7.7,0,0,1,0-1.4H145.14a.7.7,0,0,1,0,1.4Z" transform="translate(3.302 19.783)"/></g><g transform="translate(241 76)"><path class="c" d="M163.08-55.084a37.5,37.5,0,0,1,37.5-37.5" transform="translate(804.92 745.587)"/><path class="c" d="M163.08-55.084a37.5,37.5,0,0,1,37.5-37.5" transform="translate(1206.08 635.416) rotate(180)"/></g></g></svg>