<svg xmlns="http://www.w3.org/2000/svg" width="80" height="80.003" viewBox="0 0 80 80.003"><defs><style>.a{fill:#005387;}.b{fill:#fff;}.c{fill:none;stroke:#009dac;stroke-miterlimit:10;stroke-width:5px;}</style></defs><g transform="translate(-1206.5 -916.5)"><rect class="a" width="75" height="75" rx="37.5" transform="translate(1209 919)"/><g transform="translate(1121.951 982.971)"><g transform="translate(96.049 -43.971)"><path class="b" d="M101.98-27.366a8.638,8.638,0,0,1-2.658-.411.546.546,0,0,1-.353-.413.544.544,0,0,1,.182-.511,3.648,3.648,0,0,0,.714-.913,7.264,7.264,0,0,0,.99-3.729v-2.023a8.189,8.189,0,0,1,2.538-6.026.543.543,0,0,1,.766-.019.543.543,0,0,1,.019.766,7.127,7.127,0,0,0-2.239,5.3v2a8.33,8.33,0,0,1-1.144,4.283c-.1.165-.2.319-.3.46a6.162,6.162,0,0,0,5.623-1.508.543.543,0,0,1,.766-.011.543.543,0,0,1,.011.766A6.657,6.657,0,0,1,101.98-27.366Z" transform="translate(-93.491 46.088)"/><path class="b" d="M107.752-23.664a.542.542,0,0,1-.541-.543v-3.547a.541.541,0,0,1,.541-.541.541.541,0,0,1,.541.541v3.547A.542.542,0,0,1,107.752-23.664Z" transform="translate(-86.242 57.743)"/><path class="b" d="M101.824-23.664a.542.542,0,0,1-.541-.543v-3.547a.541.541,0,0,1,.541-.541.542.542,0,0,1,.543.541v3.547A.542.542,0,0,1,101.824-23.664Z" transform="translate(-91.451 57.743)"/><path class="b" d="M106.757-30.065a4.522,4.522,0,0,1-4.041-2.44c-.135-.257-.267-.532-.391-.813a.617.617,0,0,1-.045-.141,11.831,11.831,0,0,1-.2-2.976.541.541,0,0,1,.47-.485,4.265,4.265,0,0,0,2.754-1.916.54.54,0,0,1,.49-.244.542.542,0,0,1,.453.31s.81,1.426,4.552,1.3a.544.544,0,0,1,.558.513,19.988,19.988,0,0,1-.184,3.483.435.435,0,0,1-.023.1s-.021.085-.064.214a4.468,4.468,0,0,1-3.93,3.081C107.026-30.071,106.89-30.065,106.757-30.065Zm-3.419-3.641c.107.24.22.473.336.693a3.464,3.464,0,0,0,3.4,1.85,3.4,3.4,0,0,0,2.993-2.343c.023-.07.038-.12.045-.15a20.564,20.564,0,0,0,.182-2.724c-2.579-.011-3.881-.727-4.5-1.289a5.442,5.442,0,0,1-2.647,1.725A12.616,12.616,0,0,0,103.338-33.706Z" transform="translate(-90.772 48.267)"/><path class="b" d="M121.124-17.651H98.863a.542.542,0,0,1-.541-.543v-7.6a5.34,5.34,0,0,1,4.687-5.3l2.235-.272a2.322,2.322,0,0,0,1.952-1.477l.312-1.845a.534.534,0,0,1,.3-.4.54.54,0,0,1,.5.017,3.579,3.579,0,0,0,3.4.053.541.541,0,0,1,.492-.006.537.537,0,0,1,.293.394l.3,1.8a2.324,2.324,0,0,0,1.95,1.46l2.235.272a5.341,5.341,0,0,1,4.687,5.3v7.6A.542.542,0,0,1,121.124-17.651ZM99.406-18.735h21.177V-25.8a4.256,4.256,0,0,0-3.735-4.219l-2.235-.274a3.377,3.377,0,0,1-2.884-2.339l-.192-1.14a4.689,4.689,0,0,1-3.079-.039l-.2,1.163a3.377,3.377,0,0,1-2.885,2.356l-2.237.274A4.254,4.254,0,0,0,99.406-25.8Z" transform="translate(-94.052 51.73)"/><path class="b" d="M112.435-36.928a.967.967,0,0,1-.316-.053,18.393,18.393,0,0,0-4.48-.624,18.4,18.4,0,0,0-4.467.624.972.972,0,0,1-.763-.056.98.98,0,0,1-.487-.6l-1.013-3.534a1.4,1.4,0,0,1,.768-1.67,14.522,14.522,0,0,1,5.968-1.135,14.5,14.5,0,0,1,5.966,1.135,1.4,1.4,0,0,1,.77,1.67l-1.013,3.534a.98.98,0,0,1-.487.6A.961.961,0,0,1,112.435-36.928Zm-4.788-5.959a13.446,13.446,0,0,0-5.519,1.037.323.323,0,0,0-.177.385l.982,3.423a19.613,19.613,0,0,1,4.706-.646,19.63,19.63,0,0,1,4.721.646l.982-3.423a.323.323,0,0,0-.177-.385A13.446,13.446,0,0,0,107.647-42.887Z" transform="translate(-91.828 43.971)"/><path class="b" d="M110.659-27.368a6.69,6.69,0,0,1-4.717-1.787.539.539,0,0,1-.021-.765.539.539,0,0,1,.765-.021A6.226,6.226,0,0,0,112.14-28.6c-.1-.141-.2-.293-.3-.46a8.341,8.341,0,0,1-1.142-4.283v-2.023a7.108,7.108,0,0,0-2.241-5.279.541.541,0,0,1,.021-.766.54.54,0,0,1,.765.019,8.166,8.166,0,0,1,2.538,6l0,2.046a7.252,7.252,0,0,0,.99,3.727,3.628,3.628,0,0,0,.714.915.549.549,0,0,1,.182.511.546.546,0,0,1-.353.413A8.682,8.682,0,0,1,110.659-27.368Z" transform="translate(-87.506 46.088)"/><path class="b" d="M104.788-40.057a.542.542,0,0,1-.541-.543v-1.9a.543.543,0,0,1,.541-.543.543.543,0,0,1,.543.543v1.9A.542.542,0,0,1,104.788-40.057Z" transform="translate(-88.847 44.782)"/><path class="b" d="M106.186-41.458h-1.9A.541.541,0,0,1,103.74-42a.541.541,0,0,1,.541-.541h1.9a.542.542,0,0,1,.543.541A.542.542,0,0,1,106.186-41.458Z" transform="translate(-89.292 45.228)"/><path class="b" d="M104.134-26.382h-.165a.543.543,0,0,1-.543-.543.542.542,0,0,1,.543-.541h.165a.22.22,0,0,0,.22-.222v-1.358a1.581,1.581,0,0,0-1.58-1.58,1.581,1.581,0,0,0-1.58,1.58v1.358a.222.222,0,0,0,.222.222h.165a.541.541,0,0,1,.541.541.543.543,0,0,1-.541.543h-.165a1.308,1.308,0,0,1-1.306-1.306v-1.358a2.668,2.668,0,0,1,2.664-2.664,2.667,2.667,0,0,1,2.664,2.664v1.358A1.306,1.306,0,0,1,104.134-26.382Z" transform="translate(-92.481 54.743)"/><path class="b" d="M101.781-29.426a.542.542,0,0,1-.541-.543v-2.564a.542.542,0,0,1,.541-.543.543.543,0,0,1,.543.543v2.564A.543.543,0,0,1,101.781-29.426Z" transform="translate(-91.488 53.543)"/><path class="b" d="M107.752-28.945a.541.541,0,0,1-.541-.541v-3.047a.542.542,0,0,1,.541-.543.542.542,0,0,1,.541.543v3.047A.541.541,0,0,1,107.752-28.945Z" transform="translate(-86.242 53.543)"/><path class="b" d="M108.294-28.029a1.7,1.7,0,0,1-1.7-1.7,1.7,1.7,0,0,1,1.7-1.7,1.7,1.7,0,0,1,1.7,1.7A1.7,1.7,0,0,1,108.294-28.029Zm0-2.316a.617.617,0,0,0-.616.616.617.617,0,0,0,.616.616.617.617,0,0,0,.616-.616A.617.617,0,0,0,108.294-30.345Z" transform="translate(-86.785 54.99)"/><path class="b" d="M127.147-25.323H96.59a.542.542,0,0,1-.541-.543.541.541,0,0,1,.541-.541h30.557a.541.541,0,0,1,.541.541A.542.542,0,0,1,127.147-25.323Z" transform="translate(-96.049 59.402)"/></g><g transform="translate(120.13 -43.753)"><path class="b" d="M121.142-23.385a.543.543,0,0,1-.543-.543v-4.155a.543.543,0,0,1,.543-.541.541.541,0,0,1,.541.541v4.155A.542.542,0,0,1,121.142-23.385Z" transform="translate(-98.562 57.236)"/><path class="b" d="M114.2-23.385a.542.542,0,0,1-.543-.543v-4.155a.542.542,0,0,1,.543-.541.541.541,0,0,1,.541.541v4.155A.542.542,0,0,1,114.2-23.385Z" transform="translate(-104.663 57.236)"/><path class="b" d="M120.811-28.141c-5.6,0-7.246-7.9-7.313-8.238a.548.548,0,0,1,.083-.411.546.546,0,0,1,.353-.229,20.837,20.837,0,0,0,2.316-.554,16.426,16.426,0,0,1,8.564-.137,9.068,9.068,0,0,0,2.827.24.542.542,0,0,1,.451.162.548.548,0,0,1,.147.456C128.186-36.5,126.868-28.141,120.811-28.141Zm-6.12-7.92c.453,1.691,2.162,6.836,6.118,6.838,4.236,0,5.8-5.266,6.229-7.139a10.849,10.849,0,0,1-2.476-.295,15.36,15.36,0,0,0-8,.118C115.959-36.354,115.331-36.195,114.691-36.061Z" transform="translate(-104.809 48.815)"/><path class="b" d="M136.808-18.867H110.726a.542.542,0,0,1-.541-.543v-5.4a4.609,4.609,0,0,1,4.045-4.571l3.984-.487a3.423,3.423,0,0,0,2.367-2.313l.192-1.135a.543.543,0,0,1,.3-.4.535.535,0,0,1,.5.017,4.367,4.367,0,0,0,2.14.564,4.648,4.648,0,0,0,2.258-.573.538.538,0,0,1,.5-.011.541.541,0,0,1,.3.4l.193,1.157a3.422,3.422,0,0,0,2.365,2.3l3.983.487a4.609,4.609,0,0,1,4.046,4.571v5.4A.542.542,0,0,1,136.808-18.867Zm-25.539-1.084h25V-24.8a3.523,3.523,0,0,0-3.094-3.494l-3.983-.488a4.429,4.429,0,0,1-3.3-3.175l-.079-.472a5.736,5.736,0,0,1-2.1.389,5.35,5.35,0,0,1-1.989-.378l-.075.443a4.431,4.431,0,0,1-3.3,3.192l-3.984.488a3.523,3.523,0,0,0-3.092,3.494Z" transform="translate(-107.711 52.719)"/><path class="b" d="M126.623-36.452H114.394a.542.542,0,0,1-.541-.543v-5.02a1.844,1.844,0,0,1,1.841-1.841h9.63a1.843,1.843,0,0,1,1.841,1.841v5.02A.542.542,0,0,1,126.623-36.452Zm-11.687-1.084h11.146v-4.479a.762.762,0,0,0-.759-.759h-9.63a.76.76,0,0,0-.757.759Z" transform="translate(-104.488 43.855)"/><path class="b" d="M114.069-33.94a.539.539,0,0,1-.534-.458,11.458,11.458,0,0,1,.74-5.773.542.542,0,0,1,.494-.319h12.119a.544.544,0,0,1,.5.323,12.358,12.358,0,0,1,.9,5.279.536.536,0,0,1-.579.5.541.541,0,0,1-.5-.579,11.688,11.688,0,0,0-.678-4.441h-11.4a10.756,10.756,0,0,0-.524,4.845.542.542,0,0,1-.455.616A.611.611,0,0,1,114.069-33.94Z" transform="translate(-104.85 46.81)"/><path class="b" d="M118.4-38.781A2.117,2.117,0,0,1,116.29-40.9,2.117,2.117,0,0,1,118.4-43.01a2.117,2.117,0,0,1,2.115,2.113A2.117,2.117,0,0,1,118.4-38.781Zm0-3.145a1.031,1.031,0,0,0-1.029,1.029,1.031,1.031,0,0,0,1.029,1.031,1.032,1.032,0,0,0,1.031-1.031A1.031,1.031,0,0,0,118.4-41.926Z" transform="translate(-102.347 44.597)"/><path class="b" d="M118.972-41.089h-4.578a.542.542,0,0,1-.541-.543.541.541,0,0,1,.541-.541h4.578a.543.543,0,0,1,.543.541A.543.543,0,0,1,118.972-41.089Z" transform="translate(-104.488 45.333)"/><path class="b" d="M123.012-41.089h-4.507a.542.542,0,0,1-.541-.543.541.541,0,0,1,.541-.541h4.507a.541.541,0,0,1,.541.541A.542.542,0,0,1,123.012-41.089Z" transform="translate(-100.877 45.333)"/><path class="b" d="M119.7-29.015a6.513,6.513,0,0,1-4.725-2.008.543.543,0,0,1,.015-.766.543.543,0,0,1,.766.015A5.431,5.431,0,0,0,119.7-30.1a5.436,5.436,0,0,0,3.945-1.676.543.543,0,0,1,.766-.015.543.543,0,0,1,.013.766A6.506,6.506,0,0,1,119.7-29.015Z" transform="translate(-103.639 54.323)"/><path class="b" d="M140.368-25.328H109.409a.542.542,0,0,1-.541-.543.541.541,0,0,1,.541-.541h30.959a.543.543,0,0,1,.543.541A.543.543,0,0,1,140.368-25.328Z" transform="translate(-108.868 59.18)"/></g></g><g transform="translate(241 181)"><path class="c" d="M163.08-55.084a37.5,37.5,0,0,1,37.5-37.5" transform="translate(804.92 830.587)"/><path class="c" d="M163.08-55.084a37.5,37.5,0,0,1,37.5-37.5" transform="translate(1206.08 720.416) rotate(180)"/></g></g></svg>